<svg version="1.1" id="Layer_1" xmlns="http://www.w3.org/2000/svg" x="0" y="0" fill="none" viewBox="0 0 500 150" xml:space="preserve">
  <path class="st0" d="M59.4 132.5H48v-14.7H13.5c.6-.2 1.4-.6 2.4-1.3 1-.7 2-1.7 3.1-3 .9-1.3 1.6-2.6 1.9-3.8.3-1.2.5-2.2.5-2.9v-.3H48V27.7h-2.5c-.4 0-.9.1-1.5.2-.6.2-1.2.5-1.9.9-.8.6-1.4 1.3-1.8 2.1-.4.8-.6 1.4-.7 2s-.2 1-.2 1.1v23.4H28v-24c0-.5.1-1.3.3-2.6.2-1.3.7-2.8 1.5-4.6s2.1-3.6 3.9-5.3c2.3-2 4.5-3.2 6.7-3.8 1.9-.5 3.3-.7 4.4-.7h.4v-.1h23.1v11.4h-8.8v78.7h15.4c0 .6.1 1.6.4 2.9.3 1.3 1 2.7 2 4.3 1 1.3 2 2.3 3 3 1 .7 1.8 1.1 2.4 1.3H59.4v14.6z"/>
  <path class="st0" d="M112.4 113.5c1 1.3 2 2.4 3 3 1 .7 1.8 1.1 2.4 1.3H103c-.2 1.5-.8 3.4-1.8 5.5s-2.7 4.1-5 6c-2.3 1.6-4.3 2.5-6.2 2.9-1.7.3-2.9.5-3.6.5h-.6c-.9 0-2.2-.2-4-.5-1.8-.4-3.8-1.3-6-2.9-2.2-1.9-3.8-3.8-4.7-6-.9-2.1-1.4-4-1.6-5.5H55.1c.5-.2 1.3-.6 2.4-1.3 1-.7 2-1.7 3-3 1-1.5 1.7-2.9 2-4.3.3-1.2.4-2.1.4-2.7v-.2h6.6V83.6c0-.5.2-1.5.5-3s1-3.3 2-5.2c1-1.9 2.6-3.7 4.7-5.4 2.3-1.6 4.3-2.5 6.3-2.9 1.6-.3 2.7-.5 3.4-.5h.6c.9 0 2.2.2 4 .5 1.8.3 3.8 1.3 6 2.9 2 1.7 3.5 3.5 4.4 5.5.9 1.9 1.5 3.7 1.6 5.2.2 1.3.3 2.2.3 2.7v19.8H80.9v12.6c.1 1.6.7 3 1.9 4 1.1 1 2.4 1.5 3.8 1.5h.2c1.4-.1 2.6-.7 3.6-1.7s1.5-2.3 1.6-3.8v-9.3h18c0 .7.1 1.6.4 2.9.2 1.2.9 2.6 2 4.1zM80.9 83.6v8.2h11v-8.2c-.1-1.7-.7-3-1.9-4-1.1-1-2.3-1.5-3.8-1.5H86c-1.4.1-2.6.7-3.6 1.7-.9 1-1.4 2.3-1.5 3.8z"/>
  <path class="st0" d="M153.4 113.5c1 1.3 2 2.3 3.1 3 1 .7 1.8 1.1 2.4 1.3h-14.7c-.2 1.5-.8 3.4-1.9 5.5-1 2.1-2.7 4.1-5 5.9-2.3 1.6-4.3 2.5-6.2 2.8-1.7.3-2.9.5-3.6.5h-.7c-.8 0-2.2-.2-4-.5-1.8-.3-3.8-1.3-6-2.9-2.2-1.9-3.8-3.8-4.7-6-.9-2.1-1.4-3.9-1.5-5.4H96.2c.6-.2 1.4-.7 2.4-1.3 1-.7 2-1.7 3.1-3 1-1.5 1.7-2.9 2-4.3.3-1.3.4-2.3.4-2.9h6.6V83.5c0-.4.2-1.4.5-3 .3-1.5 1-3.3 2-5.2 1-1.9 2.6-3.7 4.7-5.3 2.3-1.6 4.3-2.5 6.2-2.9 1.6-.3 2.8-.5 3.4-.5h.8c.9 0 2.2.2 4 .5 1.8.3 3.8 1.3 6 2.9 2.1 1.7 3.6 3.5 4.4 5.4.9 2 1.4 3.7 1.7 5.2.2 1.3.3 2.2.3 2.6v8.4H133v-8.2c-.1-1.6-.7-3-1.8-4s-2.4-1.5-3.9-1.5h-.2c-1.4.1-2.6.7-3.6 1.7s-1.5 2.3-1.5 3.8v32.2c.1 1.6.7 3 1.9 4 1.1 1 2.3 1.5 3.7 1.5h.3c1.4-.1 2.6-.7 3.6-1.7s1.5-2.3 1.6-3.8V108c0-.1 0-.4-.1-.6-.1-.3-.2-.6-.5-.8-.2-.3-.5-.4-.7-.6-.3-.1-.5-.2-.7-.2-.2 0-.3-.1-.4-.1.8-.3 1.9-.7 3.1-1.4 1.2-.7 2.5-1.7 3.8-2.9 1.3-1.4 2.4-2.7 3.1-4 .7-1.3 1.2-2.3 1.5-3.2h2.3v12.1h6.6c0 .6.1 1.6.4 2.9.3 1.4.9 2.8 1.9 4.3z"/>
  <path class="st0" d="M195.7 113.5c1 1.3 2 2.3 3 3 1 .7 1.8 1.1 2.4 1.3h-25.8v-34c0-.3-.1-.8-.4-1.6-.2-.8-.7-1.6-1.5-2.4-.7-.5-1.3-.9-1.9-1.2-.6-.2-1.1-.4-1.5-.4v.1c-.2-.1-.5-.1-.8-.1-.3 0-.6 0-1 .1-.8.1-1.5.4-2 .8s-.9.7-1.1.9c-.7.7-1.1 1.4-1.4 2-.3.7-.5 1.2-.5 1.6v34.3h-25.9c.6-.2 1.4-.7 2.4-1.3 1-.7 2-1.7 3-3 1.1-1.5 1.7-2.9 2-4.2.3-1.3.4-2.3.4-2.9h6.6V21.2c0-.1 0-.3-.1-.6s-.2-.6-.5-.8c-.2-.3-.5-.5-.7-.6-.3-.1-.5-.2-.7-.2-.2 0-.3-.1-.4-.1.8-.3 1.8-.7 3.1-1.4 1.2-.7 2.5-1.7 3.9-2.9 1.3-1.4 2.4-2.7 3.1-4 .7-1.3 1.2-2.3 1.5-3.2h2.3v60.4c1.7-.6 3.2-.9 4.6-1 .7 0 1.3-.1 1.7-.1.5 0 .9 0 1.1.1h.2c1 0 2.4.2 4.1.7s3.5 1.3 5.4 2.7c2 1.7 3.5 3.5 4.4 5.5.9 1.9 1.5 3.7 1.7 5.2.1 1.3.2 9.8.2 25.5h6.6c0 .7.1 1.6.4 2.9.4 1.3 1 2.7 2.1 4.2zm78.8 3c1 .7 1.8 1.1 2.4 1.4h-14.7c-.2 1.3-.6 2.9-1.4 4.6-.8 1.7-1.9 3.4-3.5 5.1-1.7 1.6-3.5 2.8-5.2 3.5-1.8.7-3.3 1.2-4.6 1.3-1.1.1-1.9.2-2.4.2h-.2c-.1 0-.3.1-.5.1-.9 0-2.3-.2-4.2-.7-2.4-.5-4.9-1.8-7.5-4-1.7-1.7-3-3.5-3.8-5.3-.8-1.8-1.4-3.4-1.6-4.8h-14.7c.6-.2 1.4-.7 2.4-1.4s2-1.6 3-2.9c1.1-1.5 1.7-2.9 2-4.3.3-1.3.4-2.3.4-2.9l6.6.1v-6.4c0-.1 0-.3-.1-.6s-.2-.6-.5-.8c-.2-.3-.5-.5-.7-.6-.3-.1-.5-.2-.7-.2-.2 0-.3-.1-.4-.1.8-.3 1.8-.7 3.1-1.4 1.2-.7 2.5-1.6 3.9-2.9 1.3-1.4 2.4-2.7 3.1-4 .7-1.3 1.2-2.3 1.5-3.1h2.4l-.1 28.3c0 .1.1.5.2 1.1.1.6.4 1.3.8 2 .4.8 1 1.5 1.8 2.1.8.5 1.5.8 2.2.9.7.1 1.2.2 1.5.2.3 0 .8-.1 1.5-.3.7-.1 1.4-.5 2.2-1.1.8-.7 1.3-1.3 1.7-2.1.3-.7.5-1.3.7-1.9 0-.4.1-.6.1-.8v-.2c0-6.2.1-12.4.1-18.6-4-5.4-8-10.9-11.9-16.3l-12-16.3v-28c0-.5 0-1.1.1-2 .2-1.3.6-2.9 1.3-4.7.7-1.8 1.9-3.6 3.7-5.4 1.7-1.6 3.5-2.8 5.3-3.5 1.7-.7 3.3-1.1 4.6-1.3 1.1-.1 1.8-.2 2.3-.2h.3c.1 0 .3-.1.5-.1.8 0 2.2.2 4.2.7 2.4.5 4.8 1.8 7.4 4 2.5 2.4 4.1 4.9 4.7 7.3.7 2.3 1 3.9 1 5.1v22.3h-11.4V36.1c0-.1-.1-.5-.2-1.1-.1-.6-.3-1.3-.7-2-.4-.8-1-1.5-1.9-2.1-.8-.5-1.5-.8-2.1-1-.7-.1-1.2-.2-1.6-.2-.3 0-.8.1-1.5.2-.7.2-1.4.6-2.2 1.1-.8.7-1.3 1.3-1.6 2-.4.9-.6 1.5-.7 1.9-.1.4-.1.8-.2 1.1v24l12 16.7c4 5.6 8 11.2 12 16.7l-.1 13h6.6c0 .6.1 1.6.4 2.9.3 1.3 1 2.7 2 4.3.9 1.2 1.9 2.2 2.9 2.9z"/>
  <path class="st0" d="M318 117.8h-14.7c-.2 1.5-.8 3.4-1.9 5.5-1 2.1-2.7 4.1-5 5.9-2.3 1.6-4.3 2.5-6.2 2.9-1.6.3-2.8.5-3.4.5h-.8c-1 0-2.4-.2-4.2-.6-1.8-.4-3.7-1.3-5.8-2.9-1.8-1.4-3.1-2.9-4-4.6-.9-1.6-1.5-3.1-1.8-4.3-.3-1.3-.5-2.1-.5-2.5h-14.6c.6-.2 1.4-.7 2.4-1.3 1-.7 2-1.7 3-3 1-1.5 1.7-2.9 2-4.2.3-1.3.5-2.3.5-2.9h6.6V83.6c0-.5.2-1.5.5-3.1.3-1.5 1-3.2 2-5.1 1-1.9 2.5-3.7 4.6-5.3 2.3-1.6 4.3-2.5 6.2-2.9 1.8-.4 3-.5 3.6-.5h.6c.9 0 2.2.2 4 .5 1.8.4 3.8 1.3 5.9 2.9 2 1.7 3.5 3.5 4.4 5.4.9 1.9 1.5 3.6 1.7 5.1.2 1.3.3 2.2.3 2.7v23h6.6v.2c0 .6.1 1.5.4 2.8.3 1.2 1 2.6 2 4.1 1 1.3 2 2.3 3 3 1.3.8 2.1 1.2 2.6 1.4zm-31 3.4c1.4-.1 2.6-.7 3.6-1.7s1.5-2.3 1.6-3.8V83.6c-.1-1.6-.7-3-1.9-4-1.1-.9-2.3-1.4-3.7-1.4h-.3c-1.4.1-2.6.7-3.6 1.7s-1.5 2.2-1.6 3.7v32.2c.1 1.6.7 3 1.9 4 1.1 1 2.3 1.5 3.7 1.5h.3z"/>
  <path class="st0" d="M310.9 80c-.1-.3-.3-.7-.6-1.1-.2-.3-.5-.4-.7-.6-.3-.1-.5-.2-.7-.2-.2 0-.3-.1-.4-.1.8-.3 1.8-.7 3.1-1.4 1.2-.7 2.5-1.7 3.9-2.9 1.3-1.3 2.4-2.7 3.1-3.9.7-1.3 1.2-2.3 1.5-3.2h2.4v45.7h-.1v3.4c.1 1.6.7 3 1.9 4 1.1 1 2.4 1.5 3.9 1.5h.2c1.4-.1 2.6-.7 3.6-1.7s1.5-2.3 1.6-3.8V80c-.1-.3-.3-.7-.6-1.1-.2-.3-.5-.4-.7-.6-.3-.1-.5-.2-.7-.2-.2 0-.3-.1-.4-.1.8-.3 1.8-.7 3.1-1.4 1.2-.7 2.5-1.7 3.9-2.9 1.3-1.3 2.4-2.7 3.1-3.9.7-1.3 1.2-2.3 1.5-3.2h2.4v39.8h6.6v.2c0 .6.1 1.5.4 2.8.3 1.2 1 2.6 2 4.1 1 1.3 2 2.3 3 3 1 .7 1.8 1.1 2.4 1.3h-14.7c-.2 1.5-.8 3.3-1.9 5.4-1 2.1-2.7 4.1-5 5.9-2.3 1.6-4.3 2.5-6.2 2.9-1.8.4-3 .5-3.6.5h-.6c-.9 0-2.2-.2-4-.5-1.8-.3-3.8-1.3-6-2.9-2.2-1.9-3.8-3.8-4.7-6-.9-2.1-1.4-4-1.5-5.5h-14.7c.6-.2 1.4-.6 2.4-1.3 1-.7 2-1.7 3.1-3 1-1.5 1.7-2.9 2-4.3.3-1.2.4-2.1.4-2.7v-.2h6.6V80z"/>
  <path class="st0" d="M400.4 117.8h-25.9V86.4c-1.3-.3-2.7-.7-4.2-1.3-3-1.3-5.3-2.7-6.8-4v36.7h-25.9c.6-.2 1.4-.6 2.4-1.3 1-.7 2-1.6 3-2.9 1-1.5 1.7-2.9 2-4.3.3-1.3.4-2.3.4-2.9h6.6v-41c0-.1 0-.3-.1-.6s-.2-.6-.5-.9c-.2-.3-.5-.5-.8-.7-.3-.2-.8-.3-1.3-.4 1-.2 2.1-.6 3.4-1.2 1.2-.7 2.5-1.6 3.9-2.9 1.3-1.4 2.4-2.7 3.1-4 .7-1.3 1.2-2.3 1.5-3.1h2.4V63c.4 1.2 1.4 2.8 2.9 4.9s3.6 3.8 6.4 5.3c1.2.6 2.4 1 3.4 1.3 1.1.3 1.8.4 2.1.4h7.5v31.5h6.7v.2c0 .6.1 1.5.4 2.8.3 1.2 1 2.6 2 4.1 1 1.3 2 2.3 3 3 1.1.7 1.9 1.1 2.4 1.3z"/>
  <path class="st0" d="M436.1 113.5c1 1.3 2 2.3 3.1 3 1 .7 1.8 1.1 2.4 1.3h-14.7c-.2 1.5-.8 3.4-1.9 5.5-1 2.1-2.7 4.1-5 5.9-2.3 1.6-4.3 2.5-6.2 2.8-1.7.3-2.9.5-3.6.5h-.7c-.8 0-2.2-.2-4-.5-1.8-.3-3.8-1.3-6-2.9-2.2-1.9-3.8-3.8-4.7-6-.9-2.1-1.4-3.9-1.5-5.4h-14.6c.6-.2 1.4-.7 2.4-1.3 1-.7 2-1.7 3.1-3 1-1.5 1.7-2.9 2-4.3.3-1.3.4-2.3.4-2.9h6.6V83.5c0-.4.2-1.4.5-3 .3-1.5 1-3.3 2-5.2 1-1.9 2.6-3.7 4.7-5.3 2.3-1.6 4.3-2.5 6.2-2.9 1.6-.3 2.8-.5 3.4-.5h.8c.9 0 2.2.2 4 .5 1.8.3 3.8 1.3 6 2.9 2.1 1.7 3.6 3.5 4.4 5.4.9 2 1.4 3.7 1.7 5.2.2 1.3.3 2.2.3 2.6v8.4h-11.4v-8.2c-.1-1.6-.7-3-1.8-4s-2.4-1.5-3.9-1.5h-.2c-1.4.1-2.6.7-3.6 1.7s-1.5 2.3-1.5 3.8v32.2c.1 1.6.7 3 1.9 4 1.1 1 2.3 1.5 3.7 1.5h.3c1.4-.1 2.6-.7 3.6-1.7s1.5-2.3 1.6-3.8V108c0-.1 0-.4-.1-.6-.1-.3-.2-.6-.5-.8-.2-.3-.5-.4-.7-.6-.3-.1-.5-.2-.7-.2-.2 0-.3-.1-.4-.1.8-.3 1.9-.7 3.1-1.4 1.2-.7 2.5-1.7 3.8-2.9 1.3-1.4 2.4-2.7 3.1-4 .7-1.3 1.2-2.3 1.5-3.2h2.3v12.1h6.6c0 .6.1 1.6.4 2.9.2 1.4.8 2.8 1.8 4.3z"/>
  <path class="st0" d="M477.3 113.5c1 1.3 2 2.4 3 3 1 .7 1.8 1.1 2.4 1.3H468c-.2 1.5-.8 3.4-1.8 5.5s-2.7 4.1-5 6c-2.3 1.6-4.3 2.5-6.2 2.9-1.7.3-2.9.5-3.6.5h-.6c-.9 0-2.2-.2-4-.5-1.8-.4-3.8-1.3-6-2.9-2.2-1.9-3.8-3.8-4.7-6-.9-2.1-1.4-4-1.6-5.5H420c.5-.2 1.3-.6 2.4-1.3s2-1.7 3-3c1-1.5 1.7-2.9 2-4.3.3-1.2.4-2.1.4-2.7v-.2h6.6V83.6c0-.5.2-1.5.5-3s1-3.3 2-5.2c1-1.9 2.6-3.7 4.7-5.4 2.3-1.6 4.3-2.5 6.3-2.9 1.6-.3 2.7-.5 3.4-.5h.8c.9 0 2.2.2 4 .5 1.8.3 3.8 1.3 6 2.9 2 1.7 3.5 3.5 4.4 5.5.9 1.9 1.5 3.7 1.6 5.2.2 1.3.3 2.2.3 2.7v19.8H446v12.6c.1 1.6.7 3 1.9 4 1.1 1 2.4 1.5 3.8 1.5h.2c1.4-.1 2.6-.7 3.6-1.7s1.5-2.3 1.6-3.8v-9.3h18c0 .7.1 1.6.4 2.9 0 1.2.7 2.6 1.8 4.1zm-31.5-29.9v8.2h11v-8.2c-.1-1.7-.7-3-1.9-4-1.1-1-2.3-1.5-3.8-1.5h-.1c-1.4.1-2.6.7-3.6 1.7s-1.5 2.3-1.6 3.8z"/>
  <g/>
  <g/>
  <g/>
  <g/>
  <g/>
  <g/>
</svg>
